<svg width="30" height="30" viewBox="0 0 30 30" fill="none" xmlns="http://www.w3.org/2000/svg">
<path d="M15.6436 8.05211C15.3722 7.78048 14.9318 7.78048 14.66 8.05211C14.3883 8.32353 14.3883 8.76409 14.66 9.03572L19.9279 14.3036H5.93117C5.5459 14.3036 5.2334 14.6161 5.2334 15.0014C5.2334 15.3869 5.5459 15.6992 5.93117 15.6992H19.9209L14.653 20.9671C14.5223 21.0973 14.4489 21.2746 14.4489 21.459C14.4489 21.6437 14.5223 21.8205 14.653 21.9509C14.7836 22.0827 14.9626 22.1557 15.1484 22.1533C15.3335 22.1524 15.5111 22.0798 15.6436 21.9509L22.0977 15.497C22.229 15.3655 22.3022 15.1869 22.3002 15.0014C22.2989 14.8163 22.2264 14.6393 22.0977 14.5062L15.6436 8.05211Z" fill="#707070"/>
<path d="M15.0017 4.35541e-05C8.93419 -0.0010491 3.4637 3.65367 1.14181 9.25943C-1.17965 14.8654 0.10444 21.3178 4.39617 25.6069C10.2537 31.4644 19.7502 31.4644 25.6075 25.6069C31.4648 19.7498 31.4648 10.2533 25.6075 4.3958C22.8009 1.57325 18.982 -0.00957183 15.0017 4.35541e-05V4.35541e-05ZM15.0017 28.6073C7.50106 28.6073 1.39596 22.502 1.39596 15.0013C1.39596 7.50069 7.50106 1.39558 15.0017 1.39558C22.5024 1.39558 28.6077 7.50069 28.6077 15.0013C28.6077 22.502 22.5024 28.6073 15.0017 28.6073Z" fill="#707070"/>
</svg>
