<svg width="30" height="30" viewBox="0 0 30 30" fill="none" xmlns="http://www.w3.org/2000/svg">
<path d="M14.3572 21.9479C14.6286 22.2195 15.0689 22.2195 15.3408 21.9479C15.6124 21.6765 15.6124 21.2359 15.3408 20.9643L10.0729 15.6964L24.0696 15.6964C24.4548 15.6964 24.7673 15.3839 24.7673 14.9986C24.7673 14.6131 24.4548 14.3008 24.0696 14.3008L10.0799 14.3008L15.3478 9.03291C15.4785 8.90267 15.5519 8.72544 15.5519 8.541C15.5519 8.35634 15.4785 8.17955 15.3478 8.04909C15.2171 7.91731 15.0381 7.84432 14.8524 7.84673C14.6673 7.8476 14.4896 7.92015 14.3572 8.04909L7.90307 14.503C7.77173 14.6345 7.69852 14.8131 7.70049 14.9986C7.7018 15.1837 7.77435 15.3607 7.90307 15.4938L14.3572 21.9479Z" fill="#707070"/>
<path d="M14.999 30C21.0665 30.001 26.537 26.3463 28.8589 20.7406C31.1804 15.1346 29.8963 8.68224 25.6046 4.39313C19.7471 -1.46438 10.2506 -1.46438 4.39327 4.39313C-1.46402 10.2502 -1.46402 19.7467 4.39327 25.6042C7.19987 28.4267 11.0187 30.0096 14.999 30V30ZM14.999 1.3927C22.4997 1.3927 28.6048 7.49802 28.6048 14.9987C28.6048 22.4993 22.4997 28.6044 14.999 28.6044C7.49838 28.6044 1.39306 22.4993 1.39306 14.9987C1.39306 7.49802 7.49838 1.3927 14.999 1.3927Z" fill="#707070"/>
</svg>
