<svg xmlns="http://www.w3.org/2000/svg" width="20" height="20" viewBox="0 0 20 20"><defs><style>.a{fill:#ff0050;}</style></defs><path class="a" d="M2022.818,256.943h-6.9a.2.2,0,0,1-.141-.341l4.881-4.881a.2.2,0,0,0,0-.283l-1.131-1.131a.2.2,0,0,0-.283,0l-4.881,4.881a.2.2,0,0,1-.341-.141v-6.9a.2.2,0,0,0-.2-.2h-1.6a.2.2,0,0,0-.2.2v6.9a.2.2,0,0,1-.342.141l-4.881-4.881a.2.2,0,0,0-.283,0l-1.131,1.131a.2.2,0,0,0,0,.283l4.881,4.881a.2.2,0,0,1-.141.341h-6.9a.2.2,0,0,0-.2.2v1.6a.2.2,0,0,0,.2.2h6.9a.2.2,0,0,1,.141.341l-4.881,4.881a.2.2,0,0,0,0,.283l1.131,1.131a.2.2,0,0,0,.283,0l4.881-4.881a.2.2,0,0,1,.342.141v6.9a.2.2,0,0,0,.2.2h1.6a.2.2,0,0,0,.2-.2v-6.9a.2.2,0,0,1,.341-.141l4.881,4.881a.2.2,0,0,0,.283,0l1.131-1.131a.2.2,0,0,0,0-.283l-4.881-4.881a.2.2,0,0,1,.141-.341h6.9a.2.2,0,0,0,.2-.2v-1.6A.2.2,0,0,0,2022.818,256.943Z" transform="translate(-2003.018 -247.943)"/></svg>